<?xml version="1.0" encoding="UTF-8" standalone="no"?>
<!-- Created with Inkscape (http://www.inkscape.org/) -->

<svg
   xmlns:dc="http://purl.org/dc/elements/1.1/"
   xmlns:cc="http://creativecommons.org/ns#"
   xmlns:rdf="http://www.w3.org/1999/02/22-rdf-syntax-ns#"
   xmlns:svg="http://www.w3.org/2000/svg"
   xmlns="http://www.w3.org/2000/svg"
   xmlns:sodipodi="http://sodipodi.sourceforge.net/DTD/sodipodi-0.dtd"
   xmlns:inkscape="http://www.inkscape.org/namespaces/inkscape"
   version="1.1"
   id="svg3713"
   xml:space="preserve"
   width="5733.3335"
   height="2933.3333"
   viewBox="0 0 5733.3335 2933.3333"
   sodipodi:docname="coalbase-background.svg"
   inkscape:version="0.92.4 (5da689c313, 2019-01-14)"><metadata
     id="metadata3719"><rdf:RDF><cc:Work
         rdf:about=""><dc:format>image/svg+xml</dc:format><dc:type
           rdf:resource="http://purl.org/dc/dcmitype/StillImage" /><dc:title></dc:title></cc:Work></rdf:RDF></metadata><defs
     id="defs3717" /><sodipodi:namedview
     pagecolor="#ffffff"
     bordercolor="#666666"
     borderopacity="1"
     objecttolerance="10"
     gridtolerance="10"
     guidetolerance="10"
     inkscape:pageopacity="0"
     inkscape:pageshadow="2"
     inkscape:window-width="1920"
     inkscape:window-height="1017"
     id="namedview3715"
     showgrid="false"
     inkscape:zoom="0.28909092"
     inkscape:cx="1879.6086"
     inkscape:cy="1328.3018"
     inkscape:window-x="-8"
     inkscape:window-y="-8"
     inkscape:window-maximized="1"
     inkscape:current-layer="g3721" /><g
     id="g3721"
     inkscape:groupmode="layer"
     inkscape:label="archilab-background"
     transform="matrix(1.3333333,0,0,-1.3333333,0,2933.3333)"><g
       id="g3723"
       transform="translate(0,2041.6873)"><path
         d="M 0,0 V -380 H 110.75 L 219.5,-190 110.75,0 Z"
         style="fill:#2e7d32;fill-opacity:1;fill-rule:nonzero;stroke:none"
         id="path3725"
         inkscape:connector-curvature="0" /></g><g
       id="g3727"
       transform="translate(0,1628.9374)"><path
         d="M 0,0 V -380 H 110.75 L 219.5,-190 110.75,0 Z"
         style="fill:#60ad5e;fill-opacity:0.627451;fill-rule:nonzero;stroke:none"
         id="path3729"
         inkscape:connector-curvature="0" /></g><g
       id="g3731"
       transform="translate(465.25,1831.4375)"><path
         d="M 0,0 108.75,-190 0,-380 H -217.5 L -326.25,-190 -217.5,0 Z"
         style="fill:#263238;fill-opacity:0.94117647;fill-rule:nonzero;stroke:none"
         id="path3733"
         inkscape:connector-curvature="0" /></g><g
       id="g3735"
       transform="translate(465.25,1424.1875)"><path
         d="M 0,0 108.75,-190 0,-380 H -217.5 L -326.25,-190 -217.5,0 Z"
         style="fill:#666666;fill-opacity:1;fill-rule:nonzero;stroke:none"
         id="path3737"
         inkscape:connector-curvature="0" /></g><g
       id="g3739"
       transform="translate(816.25,2041.6875)"><path
         d="M 0,0 108.75,-190 0,-380 H -217.5 L -326.25,-190 -217.5,0 Z"
         style="fill:#2e7d32;fill-opacity:1;fill-rule:nonzero;stroke:none"
         id="path3741"
         inkscape:connector-curvature="0" /></g><g
       id="g3743"
       transform="translate(816.25,1628.9375)"><path
         d="M 0,0 108.75,-190 0,-380 H -217.5 L -326.25,-190 -217.5,0 Z"
         style="fill:#60ad5e;fill-opacity:0.627451;fill-rule:nonzero;stroke:none"
         id="path3745"
         inkscape:connector-curvature="0" /></g><g
       id="g3747"
       transform="translate(1170.75,1831.4375)"><path
         d="M 0,0 108.75,-190 0,-380 H -217.5 L -326.25,-190 -217.5,0 Z"
         style="fill:#263238;fill-opacity:0.94117647;fill-rule:nonzero;stroke:none"
         id="path3749"
         inkscape:connector-curvature="0" /></g><g
       id="g3751"
       transform="translate(1170.75,1424.1875)"><path
         d="M 0,0 108.75,-190 0,-380 H -217.5 L -326.25,-190 -217.5,0 Z"
         style="fill:#666666;fill-opacity:1;fill-rule:nonzero;stroke:none"
         id="path3753"
         inkscape:connector-curvature="0" /></g><g
       id="g3755"
       transform="translate(816.25,1216.1875)"><path
         d="M 0,0 108.75,-190 0,-380 H -217.5 L -326.25,-190 -217.5,0 Z"
         style="fill:#263238;fill-opacity:0.94117647;fill-rule:nonzero;stroke:none"
         id="path3757"
         inkscape:connector-curvature="0" /></g><g
       id="g3759"
       transform="translate(1170.75,1016.9375)"><path
         d="M 0,0 108.75,-190 0,-380 H -217.5 L -326.25,-190 -217.5,0 Z"
         style="fill:#2e7d32;fill-opacity:1;fill-rule:nonzero;stroke:none"
         id="path3761"
         inkscape:connector-curvature="0" /></g><g
       id="g3763"
       transform="translate(0,1216.1874)"><path
         d="M 0,0 V -380 H 105.75 L 214.5,-190 105.75,0 Z"
         style="fill:#263238;fill-opacity:0.94117647;fill-rule:nonzero;stroke:none"
         id="path3765"
         inkscape:connector-curvature="0" /></g><g
       id="g3767"
       transform="translate(220.5981,2199.9998)"><path
         d="m 0,0 -81.598,-142.562 108.75,-190 h 217.5 l 108.75,190 L 271.804,0 Z"
         style="fill:#60ad5e;fill-opacity:0.627451;fill-rule:nonzero;stroke:none"
         id="path3769"
         inkscape:connector-curvature="0" /></g><g
       id="g3771"
       transform="translate(926.0977,2199.9998)"><path
         d="m 0,0 -81.598,-142.562 108.75,-190 h 217.5 l 108.75,190 L 271.804,0 Z"
         style="fill:#666666;fill-opacity:1;fill-rule:nonzero;stroke:none"
         id="path3773"
         inkscape:connector-curvature="0" /></g><g
       id="g3775"
       transform="translate(1531.5,2041.6875)"><path
         d="M 0,0 108.75,-190 0,-380 H -217.5 L -326.25,-190 -217.5,0 Z"
         style="fill:#60ad5e;fill-opacity:0.627451;fill-rule:nonzero;stroke:none"
         id="path3777"
         inkscape:connector-curvature="0" /></g><g
       id="g3779"
       transform="translate(1531.5,1628.9375)"><path
         d="M 0,0 108.75,-190 0,-380 H -217.5 L -326.25,-190 -217.5,0 Z"
         style="fill:#2e7d32;fill-opacity:1;fill-rule:nonzero;stroke:none"
         id="path3781"
         inkscape:connector-curvature="0" /></g><g
       id="g3783"
       transform="translate(1531.5,1216.1875)"><path
         d="M 0,0 108.75,-190 0,-380 H -217.5 L -326.25,-190 -217.5,0 Z"
         style="fill:#263238;fill-opacity:0.94117647;fill-rule:nonzero;stroke:none"
         id="path3785"
         inkscape:connector-curvature="0" /></g><g
       id="g3787"
       transform="translate(1881.25,1833.6875)"><path
         d="M 0,0 108.75,-190 0,-380 H -217.5 L -326.25,-190 -217.5,0 Z"
         style="fill:#c81e0f;fill-opacity:1;fill-rule:nonzero;stroke:none"
         id="path3789"
         inkscape:connector-curvature="0" /></g><g
       id="g3791"
       transform="translate(1881.25,1420.9375)"><path
         d="M 0,0 108.75,-190 0,-380 H -217.5 L -326.25,-190 -217.5,0 Z"
         style="fill:#60ad5e;fill-opacity:0.627451;fill-rule:nonzero;stroke:none"
         id="path3793"
         inkscape:connector-curvature="0" /></g><g
       id="g3795"
       transform="translate(2235.75,1623.4375)"><path
         d="M 0,0 108.75,-190 0,-380 H -217.5 L -326.25,-190 -217.5,0 Z"
         style="fill:#263238;fill-opacity:0.94117647;fill-rule:nonzero;stroke:none"
         id="path3797"
         inkscape:connector-curvature="0" /></g><g
       id="g3799"
       transform="translate(2235.75,1216.1875)"><path
         d="M 0,0 108.75,-190 0,-380 H -217.5 L -326.25,-190 -217.5,0 Z"
         style="fill:#666666;fill-opacity:1;fill-rule:nonzero;stroke:none"
         id="path3801"
         inkscape:connector-curvature="0" /></g><g
       id="g3803"
       transform="translate(2586.75,1833.6875)"><path
         d="M 0,0 108.75,-190 0,-380 H -217.5 L -326.25,-190 -217.5,0 Z"
         style="fill:#2e7d32;fill-opacity:1;fill-rule:nonzero;stroke:none"
         id="path3805"
         inkscape:connector-curvature="0" /></g><g
       id="g3807"
       transform="translate(2586.75,1420.9375)"><path
         d="M 0,0 108.75,-190 0,-380 H -217.5 L -326.25,-190 -217.5,0 Z"
         style="fill:#263238;fill-opacity:0.627451;fill-rule:nonzero;stroke:none"
         id="path3809"
         inkscape:connector-curvature="0" /></g><g
       id="g3811"
       transform="translate(2941.25,1623.4375)"><path
         d="M 0,0 108.75,-190 0,-380 H -217.5 L -326.25,-190 -217.5,0 Z"
         style="fill:#60ad5e;fill-opacity:0.627451;fill-rule:nonzero;stroke:none"
         id="path3813"
         inkscape:connector-curvature="0" /></g><g
       id="g3815"
       transform="translate(2941.25,1216.1875)"><path
         d="M 0,0 108.75,-190 0,-380 H -217.5 L -326.25,-190 -217.5,0 Z"
         style="fill:#666666;fill-opacity:1;fill-rule:nonzero;stroke:none"
         id="path3817"
         inkscape:connector-curvature="0" /></g><g
       id="g3819"
       transform="translate(2586.75,1008.1875)"><path
         d="M 0,0 108.75,-190 0,-380 H -217.5 L -326.25,-190 -217.5,0 Z"
         style="fill:#60ad5e;fill-opacity:0.627451;fill-rule:nonzero;stroke:none"
         id="path3821"
         inkscape:connector-curvature="0" /></g><g
       id="g3823"
       transform="translate(2941.25,808.9375)"><path
         d="M 0,0 108.75,-190 0,-380 H -217.5 L -326.25,-190 -217.5,0 Z"
         style="fill:#2e7d32;fill-opacity:1;fill-rule:nonzero;stroke:none"
         id="path3825"
         inkscape:connector-curvature="0" /></g><g
       id="g3827"
       transform="translate(1878.75,1008.1875)"><path
         d="M 0,0 108.75,-190 0,-380 H -217.5 L -326.25,-190 -217.5,0 Z"
         style="fill:#263238;fill-opacity:0.627451;fill-rule:nonzero;stroke:none"
         id="path3829"
         inkscape:connector-curvature="0" /></g><g
       id="g3831"
       transform="translate(2235.75,2039.4375)"><path
         d="M 0,0 108.75,-190 0,-380 H -217.5 L -326.25,-190 -217.5,0 Z"
         style="fill:#60ad5e;fill-opacity:0.627451;fill-rule:nonzero;stroke:none"
         id="path3833"
         inkscape:connector-curvature="0" /></g><g
       id="g3835"
       transform="translate(2941.25,2039.4375)"><path
         d="M 0,0 108.75,-190 0,-380 H -217.5 L -326.25,-190 -217.5,0 Z"
         style="fill:#666666;fill-opacity:1;fill-rule:nonzero;stroke:none"
         id="path3837"
         inkscape:connector-curvature="0" /></g><g
       id="g3839"
       transform="translate(3302,1833.6875)"><path
         d="M 0,0 108.75,-190 0,-380 H -217.5 L -326.25,-190 -217.5,0 Z"
         style="fill:#263238;fill-opacity:0.94117647;fill-rule:nonzero;stroke:none"
         id="path3841"
         inkscape:connector-curvature="0" /></g><g
       id="g3843"
       transform="translate(3302,1420.9375)"><path
         d="M 0,0 108.75,-190 0,-380 H -217.5 L -326.25,-190 -217.5,0 Z"
         style="fill:#2e7d32;fill-opacity:1;fill-rule:nonzero;stroke:none"
         id="path3845"
         inkscape:connector-curvature="0" /></g><g
       id="g3847"
       transform="translate(3302,1008.1875)"><path
         d="M 0,0 108.75,-190 0,-380 H -217.5 L -326.25,-190 -217.5,0 Z"
         style="fill:#60ad5e;fill-opacity:0.627451;fill-rule:nonzero;stroke:none"
         id="path3849"
         inkscape:connector-curvature="0" /></g><g
       id="g3851"
       transform="translate(3651.75,1216.0625)"><path
         d="M 0,0 108.75,-190 0,-380 H -217.5 L -326.25,-190 -217.5,0 Z"
         style="fill:#c81e0f;fill-opacity:1;fill-rule:nonzero;stroke:none"
         id="path3853"
         inkscape:connector-curvature="0" /></g><g
       id="g3855"
       transform="translate(3651.75,803.3125)"><path
         d="M 0,0 108.75,-190 0,-380 H -217.5 L -326.25,-190 -217.5,0 Z"
         style="fill:#ea5a00;fill-opacity:1;fill-rule:nonzero;stroke:none"
         id="path3857"
         inkscape:connector-curvature="0" /></g><g
       id="g3859"
       transform="translate(4006.25,1005.8125)"><path
         d="M 0,0 108.75,-190 0,-380 H -217.5 L -326.25,-190 -217.5,0 Z"
         style="fill:#263238;fill-opacity:0.627451;fill-rule:nonzero;stroke:none"
         id="path3861"
         inkscape:connector-curvature="0" /></g><g
       id="g3863"
       transform="translate(4006.25,598.5625)"><path
         d="M 0,0 108.75,-190 0,-380 H -217.5 L -326.25,-190 -217.5,0 Z"
         style="fill:#666666;fill-opacity:1;fill-rule:nonzero;stroke:none"
         id="path3865"
         inkscape:connector-curvature="0" /></g><g
       id="g3867"
       transform="translate(4139.75,1216.0624)"><path
         d="M 0,0 -108.75,-190 0,-380 H 160.25 V 0 Z"
         style="fill:#2e7d32;fill-opacity:1;fill-rule:nonzero;stroke:none"
         id="path3869"
         inkscape:connector-curvature="0" /></g><g
       id="g3871"
       transform="translate(4139.75,803.312)"><path
         d="M 0,0 -108.75,-190 0,-379.999 H 160.25 V 0 Z"
         style="fill:#60ad5e;fill-opacity:0.627451;fill-rule:nonzero;stroke:none"
         id="path3873"
         inkscape:connector-curvature="0" /></g><g
       id="g3875"
       transform="translate(4139.75,390.5627)"><path
         d="M 0,0 -108.75,-190 0,-380 H 160.25 V 0 Z"
         style="fill:#263238;fill-opacity:1;fill-rule:nonzero;stroke:none"
         id="path3877"
         inkscape:connector-curvature="0" /></g><g
       id="g3879"
       transform="translate(3646.75,390.5625)"><path
         d="M 0,0 108.75,-190 0,-380 H -217.5 L -326.25,-190 -217.5,0 Z"
         style="fill:#263238;fill-opacity:1;fill-rule:nonzero;stroke:none"
         id="path3881"
         inkscape:connector-curvature="0" /></g><g
       id="g3883"
       transform="translate(4006.25,1421.8125)"><path
         d="M 0,0 108.75,-190 0,-380 H -217.5 L -326.25,-190 -217.5,0 Z"
         style="fill:#60ad5e;fill-opacity:0.627451;fill-rule:nonzero;stroke:none"
         id="path3885"
         inkscape:connector-curvature="0" /></g><g
       id="g3887"
       transform="translate(3788.7502,189.9998)"><path
         d="m 0,0 -108.75,-190 h 435 L 217.5,0 Z"
         style="fill:#2e7d32;fill-opacity:1;fill-rule:nonzero;stroke:none"
         id="path3889"
         inkscape:connector-curvature="0" /></g><g
       id="g3891"
       transform="translate(3651.75,1216.1875)"><path
         d="M 0,0 108.75,-190 0,-380 H -217.5 L -326.25,-190 -217.5,0 Z"
         style="fill:#666666;fill-opacity:1;fill-rule:nonzero;stroke:none"
         id="path3893"
         inkscape:connector-curvature="0" /></g><g
       id="g3895"
       transform="translate(3651.75,803.3125)"><path
         d="M 0,0 108.75,-190 0,-380 H -217.5 L -326.25,-190 -217.5,0 Z"
         style="fill:#2e7d32;fill-opacity:1;fill-rule:nonzero;stroke:none"
         id="path3897"
         inkscape:connector-curvature="0" /></g><g
       id="g3899"
       transform="translate(1883.625,1833.6875)"><path
         d="M 0,0 108.75,-190 0,-380 H -217.5 L -326.25,-190 -217.5,0 Z"
         style="fill:#666666;fill-opacity:1;fill-rule:nonzero;stroke:none"
         id="path3901"
         inkscape:connector-curvature="0" /></g></g></svg>